<?xml version="1.0" standalone="no"?>
<!DOCTYPE svg PUBLIC "-//W3C//DTD SVG 20010904//EN"
 "http://www.w3.org/TR/2001/REC-SVG-20010904/DTD/svg10.dtd">
<svg version="1.0" xmlns="http://www.w3.org/2000/svg"
 width="2365.000000pt" height="2365.000000pt" viewBox="0 0 2365.000000 2365.000000"
 preserveAspectRatio="xMidYMid meet">
<metadata>
Created by potrace 1.11, written by Peter Selinger 2001-2013
</metadata>
<g transform="translate(0.000000,2365.000000) scale(0.100000,-0.100000)"
fill="#000000" stroke="none">
<path d="M12047 16134 c-1 -1 -64 -5 -139 -8 -75 -4 -145 -8 -155 -10 -10 -2
-49 -7 -88 -10 -38 -4 -81 -9 -95 -11 -14 -2 -45 -6 -70 -10 -493 -70 -1036
-260 -1494 -523 -225 -128 -522 -338 -670 -472 -133 -120 -169 -154 -246 -231
-47 -47 -128 -134 -179 -192 -51 -59 -96 -107 -100 -107 -3 1 -17 15 -31 33
-80 101 -326 348 -474 476 -585 503 -1306 842 -2065 971 -69 12 -145 23 -170
26 -25 2 -56 6 -69 8 -12 3 -61 8 -110 11 -48 4 -105 9 -127 11 -49 5 -445 5
-500 0 -22 -2 -78 -7 -125 -10 -92 -7 -147 -13 -189 -21 -14 -2 -44 -7 -66 -9
-36 -5 -85 -14 -180 -31 -16 -3 -41 -8 -55 -11 -14 -3 -36 -8 -50 -10 -61 -11
-334 -86 -432 -118 -100 -34 -246 -89 -348 -132 -60 -26 -384 -188 -442 -222
-449 -262 -877 -628 -1183 -1012 -33 -41 -62 -77 -65 -80 -19 -17 -169 -234
-232 -335 -142 -227 -246 -430 -342 -669 -46 -113 -142 -391 -151 -436 -2 -8
-14 -58 -28 -110 -14 -52 -28 -108 -31 -125 -3 -16 -9 -46 -14 -65 -5 -19 -10
-39 -10 -45 -2 -12 -10 -59 -17 -100 -28 -168 -36 -238 -42 -365 -3 -58 -6
-1120 -8 -2361 l-3 -2256 949 0 949 0 1 51 c0 28 1 1032 3 2231 1 1199 5 2191
9 2205 3 14 8 50 11 81 13 129 74 377 124 499 5 14 18 45 27 70 173 443 531
869 946 1125 465 286 979 400 1534 340 28 -3 57 -7 65 -10 8 -2 35 -6 60 -9
25 -3 60 -10 78 -15 18 -5 33 -10 35 -10 7 1 74 -17 157 -41 139 -41 262 -90
401 -162 607 -314 1049 -871 1215 -1533 4 -16 8 -34 10 -40 1 -5 12 -64 25
-130 l22 -120 1 -2275 1 -2275 948 -1 c521 -1 947 2 947 5 1 3 2 949 4 2101 2
1152 6 2109 9 2125 3 17 8 77 11 135 8 141 26 309 41 380 46 210 88 347 156
501 37 85 97 205 122 244 6 10 35 55 63 100 309 489 827 856 1412 1001 73 18
161 36 195 39 34 4 64 8 67 10 12 7 198 18 310 18 427 1 817 -104 1198 -322
237 -137 495 -365 673 -596 58 -76 119 -163 119 -171 0 -3 11 -20 24 -37 56
-75 164 -337 225 -547 46 -161 110 -440 127 -560 3 -19 9 -57 14 -85 5 -27 12
-72 16 -100 4 -27 8 -52 9 -55 0 -3 5 -36 10 -75 5 -38 9 -72 10 -75 0 -3 5
-30 9 -60 4 -30 10 -64 12 -75 2 -11 6 -40 10 -65 7 -58 11 -78 18 -115 3 -16
11 -61 16 -99 6 -37 12 -71 14 -75 2 -3 7 -28 10 -55 4 -27 9 -52 11 -56 2 -3
6 -26 10 -50 3 -25 8 -53 11 -62 3 -9 7 -25 9 -35 93 -440 204 -779 357 -1091
157 -319 467 -716 809 -1036 84 -80 313 -267 405 -332 249 -177 514 -328 769
-439 411 -180 843 -297 1255 -339 30 -4 82 -9 115 -13 128 -16 781 -7 836 11
8 3 39 7 69 10 87 9 138 17 245 38 55 11 109 21 120 23 342 60 863 262 1240
480 414 239 845 603 1125 950 36 44 70 85 76 90 5 6 23 28 39 50 16 22 32 42
35 45 3 3 23 27 43 54 l38 50 -33 12 c-18 7 -337 113 -708 235 -371 122 -769
253 -885 291 -115 38 -242 80 -281 92 l-71 23 -99 -74 c-157 -119 -331 -220
-514 -301 -118 -52 -386 -130 -505 -147 -23 -3 -51 -7 -64 -10 -104 -20 -470
-27 -596 -12 -302 36 -598 129 -863 269 -84 44 -310 192 -355 232 -16 13 -47
40 -70 58 -72 57 -239 229 -317 328 -159 199 -278 416 -354 640 -25 74 -47
146 -50 160 -3 14 -12 52 -20 86 -8 34 -17 72 -20 85 -2 13 -11 58 -19 99 -9
41 -18 95 -21 120 -3 25 -8 54 -10 65 -2 11 -7 47 -10 80 -3 33 -8 76 -11 95
-5 41 -12 131 -20 245 -5 70 -13 154 -31 310 -12 114 -41 297 -64 415 -6 30
-14 66 -16 80 -3 14 -14 61 -26 105 -11 44 -21 85 -22 90 -19 83 -95 299 -148
419 -217 496 -427 838 -728 1180 -24 28 -53 62 -65 74 -69 80 -276 278 -423
405 -98 84 -456 338 -522 370 -8 4 -33 18 -55 32 -333 200 -846 404 -1212 480
-43 9 -87 19 -98 21 -50 12 -307 53 -370 59 -38 4 -80 8 -93 10 -52 9 -469 25
-475 19z"/>
<path d="M18727 16134 c-1 -1 -67 -5 -147 -8 -80 -3 -161 -8 -180 -10 -19 -3
-62 -7 -95 -11 -554 -58 -1150 -255 -1655 -545 -193 -111 -465 -299 -600 -416
-84 -73 -141 -123 -185 -165 -27 -26 -63 -59 -78 -73 -31 -29 -33 -25 30 -96
12 -14 32 -36 44 -50 12 -14 54 -68 94 -120 334 -440 583 -958 721 -1500 2 -8
8 -37 14 -65 18 -82 19 -83 56 -19 37 62 85 135 94 144 3 3 14 19 25 35 72
113 285 338 434 459 93 74 272 196 289 196 6 0 12 4 14 8 5 15 239 128 344
167 155 58 316 103 429 121 28 4 57 9 65 10 8 2 42 6 75 10 33 3 69 8 80 10
25 6 353 6 380 0 11 -2 52 -7 90 -11 74 -7 243 -39 310 -57 22 -6 45 -12 50
-14 50 -12 199 -65 285 -101 223 -95 416 -216 617 -385 l82 -69 283 94 c156
52 592 196 971 321 378 125 687 230 687 233 0 8 -157 218 -239 318 -122 151
-286 325 -442 470 -128 118 -473 385 -498 385 -5 0 -14 6 -20 14 -10 12 -160
105 -291 180 -103 59 -347 175 -475 226 -195 78 -541 187 -654 205 -19 3 -37
7 -40 9 -3 2 -22 7 -41 10 -19 3 -60 10 -90 16 -73 15 -219 37 -300 45 -36 4
-76 9 -90 10 -55 7 -438 23 -443 19z"/>
</g>
</svg>
